<svg width="93" height="23" viewBox="0 0 93 23" fill="none" xmlns="http://www.w3.org/2000/svg">
<path fill-rule="evenodd" clip-rule="evenodd" d="M72.298 21.5267C72.181 22.1927 72.838 22.7132 73.417 22.4162L80.002 19.0322L86.5855 22.4162C87.1645 22.7132 87.8215 22.1927 87.7045 21.5282L86.4595 14.4332L91.744 9.39921C92.2375 8.92821 91.981 8.06722 91.3195 7.97422L83.9725 6.93022L80.6965 0.439716C80.634 0.308149 80.5356 0.19699 80.4125 0.119154C80.2895 0.0413182 80.1468 0 80.0012 0C79.8556 0 79.713 0.0413182 79.5899 0.119154C79.4668 0.19699 79.3684 0.308149 79.306 0.439716L76.03 6.93172L68.683 7.97572C68.0215 8.06872 67.765 8.92971 68.2585 9.40071L73.543 14.4347L72.298 21.5297V21.5267ZM79.6555 17.3762L74.1265 20.2172L75.1675 14.2817C75.1918 14.1451 75.1823 14.0046 75.1397 13.8725C75.097 13.7404 75.0226 13.6208 74.923 13.5242L70.564 9.36921L76.642 8.50522C76.7678 8.48621 76.8872 8.43698 76.9899 8.36174C77.0925 8.28651 77.1754 8.1875 77.2315 8.07322L80.002 2.58622L82.771 8.07322C82.827 8.1875 82.9099 8.28651 83.0126 8.36174C83.1152 8.43698 83.2346 8.48621 83.3605 8.50522L89.4385 9.36772L85.0795 13.5227C84.9795 13.6194 84.9048 13.7392 84.8622 13.8716C84.8195 14.004 84.8102 14.1449 84.835 14.2817L85.876 20.2172L80.347 17.3762C80.24 17.3211 80.1215 17.2923 80.0012 17.2923C79.8809 17.2923 79.7624 17.3211 79.6555 17.3762V17.3762Z" fill="#99874E"/>
<path d="M5.41598 22.4162C4.83698 22.7132 4.17998 22.1927 4.29698 21.5282L5.54198 14.4332L0.25748 9.39923C-0.23602 8.92823 0.0204801 8.06723 0.68198 7.97423L8.02898 6.93023L11.305 0.439727C11.6005 -0.145273 12.4 -0.145273 12.6955 0.439727L15.9715 6.93023L23.3185 7.97423C23.98 8.06723 24.2365 8.92823 23.743 9.39923L18.4585 14.4332L19.7035 21.5282C19.8205 22.1927 19.1635 22.7132 18.5845 22.4162L11.998 19.0322L5.41448 22.4162H5.41598Z" fill="#99874E"/>
<path fill-rule="evenodd" clip-rule="evenodd" d="M38.298 21.5267C38.181 22.1927 38.838 22.7132 39.417 22.4162L46.002 19.0322L52.5855 22.4162C53.1645 22.7132 53.8215 22.1927 53.7045 21.5282L52.4595 14.4332L57.744 9.39921C58.2375 8.92821 57.981 8.06722 57.3195 7.97422L49.9725 6.93022L46.6965 0.439716C46.634 0.308149 46.5356 0.19699 46.4125 0.119154C46.2895 0.0413182 46.1468 0 46.0012 0C45.8556 0 45.713 0.0413182 45.5899 0.119154C45.4668 0.19699 45.3684 0.308149 45.306 0.439716L42.03 6.93172L34.683 7.97572C34.0215 8.06872 33.765 8.92971 34.2585 9.40071L39.543 14.4347L38.298 21.5297V21.5267ZM45.6555 17.3762L40.1265 20.2172L41.1675 14.2817C41.1918 14.1451 41.1823 14.0046 41.1397 13.8725C41.097 13.7404 41.0226 13.6208 40.923 13.5242L36.564 9.36921L42.642 8.50522C42.7678 8.48621 42.8872 8.43698 42.9899 8.36174C43.0925 8.28651 43.1754 8.1875 43.2315 8.07322L46.002 2.58622L48.771 8.07322C48.827 8.1875 48.9099 8.28651 49.0126 8.36174C49.1152 8.43698 49.2346 8.48621 49.3605 8.50522L55.4385 9.36772L51.0795 13.5227C50.9795 13.6194 50.9048 13.7392 50.8622 13.8716C50.8195 14.004 50.8102 14.1449 50.835 14.2817L51.876 20.2172L46.347 17.3762C46.24 17.3211 46.1215 17.2923 46.0012 17.2923C45.8809 17.2923 45.7624 17.3211 45.6555 17.3762V17.3762Z" fill="#99874E"/>
</svg>
