<svg width="257" height="33" viewBox="0 0 257 33" fill="none" xmlns="http://www.w3.org/2000/svg">
<path fill-rule="evenodd" clip-rule="evenodd" d="M23.4244 0.242591H23.7381H233.72H234.036L234.259 0.467687L246.158 12.5126L248.516 10.1553L249.051 9.61978L249.587 10.1553L255.583 16.1511L256.118 16.6867L255.583 17.2223L249.587 23.2181L249.051 23.7537L248.516 23.2181L245.961 20.6637L234.259 32.5091L234.036 32.7342H233.72H23.7381H23.419L23.1961 32.5059L11.3641 20.3854L8.53142 23.2181L7.99585 23.7537L7.46028 23.2181L1.46448 17.2223L0.928913 16.6867L1.46448 16.1511L7.46028 10.1553L7.99585 9.61978L8.53142 10.1553L11.0215 12.6454L23.2025 0.464431L23.4244 0.242591ZM247.026 19.5861L249.051 21.6114L253.976 16.6867L249.051 11.7621L247.223 13.5902L249.56 15.9561L250.086 16.4884L249.56 17.0207L247.026 19.5861ZM246.152 14.6614L247.957 16.4884L245.955 18.515L244.126 16.6867L246.152 14.6614ZM245.087 13.5837L242.52 16.1511L241.984 16.6867L242.52 17.2223L244.89 19.5926L233.403 31.2194H24.0572L12.4354 19.3141L14.5272 17.2223L15.0628 16.6867L14.5272 16.1511L12.0926 13.7166L24.0518 1.75741H233.403L245.087 13.5837ZM12.9205 16.6867L11.0215 14.7877L9.501 16.3082L11.3771 18.2301L12.9205 16.6867ZM7.90071 15.7662L9.95037 13.7166L7.99585 11.7621L3.07119 16.6867L7.99585 21.6114L10.3059 19.3013L7.8943 16.8309L7.37156 16.2954L7.90071 15.7662Z" fill="#99874E"/>
</svg>
