<?xml version="1.0" encoding="utf-8"?>
<!-- Generator: Adobe Illustrator 23.0.0, SVG Export Plug-In . SVG Version: 6.00 Build 0)  -->
<svg version="1.1" id="Livello_1" xmlns="http://www.w3.org/2000/svg" xmlns:xlink="http://www.w3.org/1999/xlink" x="0px" y="0px"
	 viewBox="0 0 595.28 841.89" style="enable-background:new 0 0 595.28 841.89;" xml:space="preserve">
<style type="text/css">
	.st0{fill:#EF7B37;}
</style>
<path class="st0" d="M272.62,377.4l-6.13-3.57c0,0,0.85,0.17,4.26-2.55l-12.77-16.68h4.94c0,0,0.17-6.64-7.15-17.53
	c0,0,3.06,0.85,7.32-4.09c0,0-5.62-2.38-14.47-9.87c0,0-2.04-2.04-9.7-3.06c0,0,4.09-5.28,0.68-8.34c0,0-37.28,10.21-37.62,11.91
	c0,0-2.04-0.51-12.43,10.89c0,0-3.74,3.23-8.51,4.77c-4.77,1.53-5.11,4.94-4.6,6.13c0.51,1.19-0.51,1.7,2.55,4.26
	c0,0,1.53,1.7,2.04,4.94s5.79,4.43,5.79,4.43l3.57,2.72c0,0,0.57,1.19,3.93,0.68c0,0-3.54-3.32-2.62-5.2
	c0.93-1.88,3.73-2.36,3.73-2.36s10.37-1.53,11.81,8.65c0,0-0.61,3.67-6.77,4.98c-6.16,1.31-9.16-2.74-9.16-2.74
	s-0.83,1.91,0.93,4.09c0,0-2.7,9.62,7,16.26c0,0,6.47-12.85,18.21-16.26c0,0,6.55-3.74,4.94-16.6c0,0,4.09,6.13,0.77,14.3
	c0,0-2.55,4.34-7.91,8.77c-5.36,4.43-22.98,20-23.32,39.74c0,0,1.53,1.79,7.83,0.77c0,0,4.77,29.11,41.62,30.55
	c0,0,22.04,2.72,26.64,25.02c0,0,0.09,4.34-5.7,3.57s-19.49,0.85-18.13,10.13h38.55c0,0,2.21-25.96-7.66-43.32
	c0,0,21.96-9.36,52.6-6.04c0,0-3.57-9.7,0.6-20.43c0,0-1.11,17.96,5.96,22.04c0,0,9.87,12.68,26.3,15.23s36,1.79,37.11,20.6
	c0,0,1.79,1.79-6.72,1.79c-8.51,0-10.72,7.49-9.11,10.13h24.68l6.13-8.17c0,0-0.6-27.4-25.53-36.77c0,0-15.91-11.66-15.57-34.04
	c0,0,18.3,12.51,22.89,18.04c4.6,5.53,22.47,9.28,27.15,0.68c4.68-8.6,7.57-13.62-1.11-27.83c0,0-5.02-6.38-7.32-7.74
	c-2.3-1.36-2.89-7.08-2.89-7.08s8.51-2.03,6.38-19.98c0,0-2.13-12.26-1.53-13.28c0,0-19.83,9.45-12.17,30.21l0.43,1.62
	c0,0-0.6-11.23,6.47-17.53c0,0-5.11,12.26-4.68,20.26s6.81,9.28,9.87,14.43s7.83,13.66,1.45,20.81c-6.38,7.15-15.49,2.21-28.6-10.55
	s-47.15-44.51-81.02-26.47c0,0-1.02-10.47,10.13-12.6c0,0,32,7.57,52.77,4.85c0,0,9.45-3.57,14.21-8.34c0,0-40.6-6.55-48.68-8.68
	l29.87,0.51c0,0,15.4,0.77,31.74-17.36l-57.79,1.96c0,0,48-9.36,62.3-31.32l-67.57,14.64c0,0,49.96-16.26,56.94-26.21
	c6.98-9.96,6.38-12.68,7.57-14.21l-81.53,30.81l43.57-22.47c0,0,31.06-15.32,28.68-30.13l-74.13,38.04l40.94-28.34
	c0,0,16.43-10.13,18.89-28.68l-93.96,62.55c0,0-27.32,18.72-3.06,55.23C277.72,362.94,280.4,373.62,272.62,377.4z"/>
<path class="st0" d="M217.6,444.89c0,0,2.68,14.04-13.53,30.26l-0.77,1.02c0,0-19.53-2.64-20.04,9.91h30c0,0,13.02-18.6,37.15-32.64
	c0,0-5.11-2.81-16.6-3.7C222.32,448.85,217.6,444.89,217.6,444.89z"/>
<path class="st0" d="M336.45,445.66c0,0,5.62,13.45-5.62,28.09l-2.38,1.02c0,0-21.62-3.06-20.09,11.32h31.83
	c0,0,13.96-20.51,16.17-29.53C356.36,456.55,347.89,454.85,336.45,445.66z"/>
</svg>
