<svg width="92" height="23" viewBox="0 0 92 23" fill="none" xmlns="http://www.w3.org/2000/svg">
<path d="M73.416 22.4152C72.837 22.7122 72.18 22.1917 72.297 21.5272L73.542 14.4323L68.2575 9.39825C67.764 8.92725 68.0205 8.06625 68.682 7.97325L76.029 6.92925L79.305 0.43875C79.6005 -0.14625 80.4 -0.14625 80.6955 0.43875L83.9715 6.92925L91.3185 7.97325C91.98 8.06625 92.2365 8.92725 91.743 9.39825L86.4585 14.4323L87.7035 21.5272C87.8205 22.1917 87.1635 22.7122 86.5845 22.4152L79.998 19.0312L73.4145 22.4152H73.416Z" fill="#99874E"/>
<path d="M5.41598 22.4152C4.83698 22.7122 4.17998 22.1917 4.29698 21.5272L5.54198 14.4323L0.25748 9.39825C-0.23602 8.92725 0.0204801 8.06625 0.68198 7.97325L8.02898 6.92925L11.305 0.43875C11.6005 -0.14625 12.4 -0.14625 12.6955 0.43875L15.9715 6.92925L23.3185 7.97325C23.98 8.06625 24.2365 8.92725 23.743 9.39825L18.4585 14.4323L19.7035 21.5272C19.8205 22.1917 19.1635 22.7122 18.5845 22.4152L11.998 19.0312L5.41448 22.4152H5.41598Z" fill="#99874E"/>
<path d="M39.416 22.4152C38.837 22.7122 38.18 22.1917 38.297 21.5272L39.542 14.4323L34.2575 9.39825C33.764 8.92725 34.0205 8.06625 34.682 7.97325L42.029 6.92925L45.305 0.43875C45.6005 -0.14625 46.4 -0.14625 46.6955 0.43875L49.9715 6.92925L57.3185 7.97325C57.98 8.06625 58.2365 8.92725 57.743 9.39825L52.4585 14.4323L53.7035 21.5272C53.8205 22.1917 53.1635 22.7122 52.5845 22.4152L45.998 19.0312L39.4145 22.4152H39.416Z" fill="#99874E"/>
</svg>
